<?xml version="1.0" encoding="utf-8"?>
<!-- Generator: Adobe Illustrator 24.1.3, SVG Export Plug-In . SVG Version: 6.00 Build 0)  -->
<svg version="1.1" id="Layer_1" xmlns="http://www.w3.org/2000/svg" xmlns:xlink="http://www.w3.org/1999/xlink" x="0px" y="0px"
	 viewBox="0 0 157 51.1" style="enable-background:new 0 0 157 51.1;" xml:space="preserve">
<style type="text/css">
	.st0{fill-rule:evenodd;clip-rule:evenodd;fill:#DE3B4A;}
	.st1{fill:#FFFFFF;}
	.st2{fill:#FFB646;}
</style>
<path class="st0" d="M9.4,1.8h137.5c2,0,4,0.8,5.4,2.3s2.2,3.4,2.2,5.4v32.2c0,2-0.8,4-2.2,5.4s-3.4,2.2-5.4,2.3H9.4
	c-2,0-4-0.8-5.4-2.3c-1.4-1.4-2.2-3.4-2.2-5.4V9.5c0-2,0.8-4,2.2-5.4C5.4,2.6,7.4,1.8,9.4,1.8"/>
<path class="st1" d="M146.8,3.6H9.4c-1.5,0-3,0.6-4.1,1.7C4.2,6.4,3.5,7.9,3.5,9.5v32.2c0,1.6,0.6,3.1,1.7,4.2
	c1.1,1.1,2.6,1.7,4.1,1.7h137.5c1.6,0,3-0.6,4.1-1.7c1.1-1.1,1.7-2.6,1.7-4.2V9.5c0-1.6-0.6-3.1-1.7-4.2
	C149.9,4.2,148.4,3.6,146.8,3.6L146.8,3.6z M9.4,0h137.5c2.5,0,4.9,1,6.6,2.8c1.8,1.8,2.7,4.2,2.8,6.7v32.2c0,2.5-1,4.9-2.8,6.7
	c-1.8,1.8-4.1,2.8-6.6,2.8H9.4c-2.5,0-4.9-1-6.6-2.8C1,46.6,0,44.2,0,41.7V9.5c0-2.5,1-4.9,2.8-6.7C4.5,1,6.9,0,9.4,0L9.4,0z"/>
<path class="st1" d="M23.6,13.3c-0.4-0.9-1.2-1.7-2.1-2.2c-1.2-0.6-2.5-0.8-3.8-0.8c-1.6,0-3.3,0.1-4.8,0.6
	c-0.4,0.1-0.8,0.4-1.1,0.7c-0.3,0.4-0.5,0.9-0.6,1.4L8.4,29.8c-0.1,0.5-0.1,1,0.1,1.4c0.1,0.2,0.2,0.3,0.4,0.4
	c0.2,0.1,0.3,0.2,0.5,0.3c1.5,0.4,3.1,0.6,4.7,0.5c1.4,0,2.8-0.2,4.1-0.8c1.1-0.5,2-1.2,2.8-2.1c0.8-1,1.4-2.1,1.8-3.3
	c0.5-1.4,0.8-2.8,1-4.2l0.2-1.2c0.2-1.4,0.4-2.8,0.3-4.2C24.3,15.4,24.1,14.3,23.6,13.3L23.6,13.3z M18.3,20.9l-0.2,1
	c-0.2,1.4-0.5,2.9-1,4.2c-0.4,0.8-0.9,1.3-1.6,1.3c-0.2,0-0.4,0-0.6,0c-0.1,0-0.3,0-0.4,0l2-11.9c0.1,0,0.3,0,0.4,0
	c0.2,0,0.4,0,0.6,0c0.7,0,1.1,0.4,1.2,1.3C18.7,17.6,18.6,18.9,18.3,20.9z"/>
<path class="st1" d="M32.3,18.8h5c0.4,0,0.6,0.2,0.5,0.6l-0.6,3.8c0,0.1,0,0.2-0.1,0.3c0,0.1-0.1,0.1-0.2,0.2
	c-0.1,0.1-0.1,0.1-0.2,0.1c-0.1,0-0.2,0-0.3,0h-5l-0.3,2c-0.1,0.4-0.1,0.8,0,1.2c0.1,0.2,0.3,0.4,0.7,0.4h5c0.3,0,0.5,0.2,0.4,0.5
	l-0.6,3.4c0,0.2-0.1,0.4-0.3,0.5C36.2,32,36,32,35.8,32.1c-1,0.1-2.2,0.2-3.4,0.3c-1.2,0.1-2.4,0.1-3.5,0.1c-1.7,0-2.9-0.4-3.5-1.2
	c-0.6-0.8-0.7-2-0.5-3.7l2-12.4c0.3-1.6,0.8-2.9,1.7-3.7c0.9-0.8,2.2-1.2,3.8-1.2c1.1,0,2.2,0,3.3,0.1c1.1,0.1,2.2,0.2,3.2,0.3
	c0.2,0,0.4,0.1,0.5,0.2c0.1,0.1,0.1,0.2,0.1,0.3c0,0.1,0,0.2,0,0.3l-0.6,3.4c0,0.1,0,0.1-0.1,0.2c0,0.1-0.1,0.1-0.1,0.2
	c-0.1,0-0.1,0.1-0.2,0.1c-0.1,0-0.1,0-0.2,0h-4.7c-0.2,0-0.3,0-0.4,0.1c-0.1,0.1-0.3,0.2-0.3,0.3c-0.2,0.4-0.3,0.8-0.4,1.2
	L32.3,18.8z"/>
<path class="st1" d="M44.1,27.4c0.9,0,1.4-0.6,1.6-1.7c0.1-0.4,0.1-0.8,0-1.2c-0.1-0.3-0.3-0.6-0.7-0.8l-2-1.3
	c-0.5-0.3-0.9-0.7-1.3-1.1c-0.3-0.4-0.6-0.8-0.8-1.3c-0.2-0.5-0.3-1-0.3-1.6c0-0.6,0-1.3,0.2-1.9c0.3-2,1-3.6,2.1-4.6
	s2.7-1.6,4.8-1.6c0.9,0,1.7,0.1,2.5,0.2c0.8,0.1,1.6,0.4,2.4,0.6c0.2,0,0.3,0.1,0.4,0.2c0,0.1,0.1,0.1,0.1,0.2c0,0.1,0,0.1,0,0.2
	l-0.6,3.2c-0.1,0.5-0.4,0.7-0.8,0.6c-0.6-0.1-1.2-0.2-1.8-0.3c-0.6-0.1-1.1-0.1-1.7-0.1c-0.4,0-0.8,0.1-1.2,0.3
	c-0.3,0.3-0.4,0.6-0.5,1c-0.1,0.4-0.1,0.8,0.1,1.1c0.1,0.3,0.4,0.6,0.7,0.8l2.1,1.4c0.9,0.5,1.6,1.4,1.9,2.4c0.3,1.2,0.3,2.5,0,3.7
	c-0.1,1-0.4,1.9-0.8,2.8c-0.3,0.8-0.8,1.4-1.4,2c-0.6,0.6-1.3,1-2.1,1.2c-1,0.3-2,0.4-3.1,0.4c-1,0-1.9-0.1-2.8-0.2
	c-0.8-0.1-1.6-0.3-2.4-0.7c-0.1-0.1-0.2-0.1-0.4-0.2c-0.1-0.1-0.1-0.2-0.1-0.4l0.5-3.2c0-0.2,0.1-0.4,0.2-0.5
	c0.1-0.1,0.1-0.1,0.2-0.1c0.1,0,0.2,0,0.3,0c0.7,0.1,1.4,0.2,2.1,0.3C42.7,27.4,43.4,27.4,44.1,27.4z"/>
<path class="st1" d="M54,20.5c0.2-1.5,0.6-3,1.1-4.4c0.4-1.2,1-2.2,1.8-3.2c0.7-0.8,1.6-1.5,2.7-1.9c1.2-0.5,2.4-0.7,3.7-0.6
	c0.7,0,1.4,0.1,2.1,0.3c0.6,0.1,1.3,0.3,1.8,0.6c0.2,0.1,0.3,0.2,0.4,0.3c0,0.1,0.1,0.1,0.1,0.2c0,0.1,0,0.1,0,0.2l-0.5,3.2
	c0,0.2-0.1,0.3-0.2,0.4c-0.1,0.1-0.1,0.1-0.2,0.1c-0.1,0-0.1,0-0.2,0c-0.5-0.1-0.9-0.1-1.4-0.2c-0.5,0-1-0.1-1.5-0.1
	c-0.5,0-1,0.1-1.5,0.3c-0.4,0.2-0.8,0.5-1.1,0.9c-0.3,0.5-0.6,1.1-0.8,1.7c-0.2,0.8-0.4,1.7-0.6,2.5L59.7,22
	c-0.2,0.8-0.2,1.7-0.3,2.6c0,0.6,0.1,1.1,0.3,1.7c0.2,0.4,0.4,0.7,0.8,0.9c0.4,0.2,0.9,0.3,1.4,0.3c0.5,0,1.1,0,1.6-0.1
	c0.5,0,1.1-0.1,1.5-0.2c0.1,0,0.1,0,0.2,0c0.1,0,0.1,0.1,0.2,0.1c0.1,0.1,0.1,0.3,0.1,0.4l-0.5,3.2c0,0.2-0.1,0.3-0.2,0.4
	c-0.2,0.1-0.3,0.2-0.5,0.3c-0.7,0.3-1.4,0.5-2.1,0.6c-0.8,0.1-1.6,0.2-2.3,0.2c-1.2,0-2.4-0.2-3.5-0.6c-0.9-0.4-1.6-1.1-2.1-1.9
	c-0.5-1-0.8-2.1-0.8-3.2c-0.1-1.5,0.1-3,0.3-4.4L54,20.5z"/>
<path class="st1" d="M83.1,12.9c-0.9-1.7-2.7-2.6-5.5-2.6c-2.7,0-4.8,0.9-6.3,2.6c-1.5,1.7-2.5,4.3-3.1,7.8L68,22.1
	c-0.6,3.4-0.4,6,0.5,7.8c0.9,1.7,2.7,2.6,5.5,2.6c2.7,0,4.8-0.9,6.3-2.6c1.5-1.7,2.5-4.3,3.1-7.8l0.2-1.4
	C84.2,17.3,84,14.7,83.1,12.9z M78.1,18.3c-0.1,0.7-0.2,1.5-0.3,2.5L77.5,22c-0.2,1-0.3,1.8-0.5,2.5c-0.1,0.6-0.3,1.2-0.6,1.7
	c-0.2,0.4-0.4,0.7-0.7,1c-0.3,0.2-0.6,0.3-1,0.3c-0.3,0-0.6-0.1-0.9-0.3c-0.2-0.3-0.4-0.6-0.4-1c-0.1-0.6-0.1-1.1,0-1.7
	c0.1-0.7,0.2-1.5,0.4-2.5l0.2-1.1c0.2-1,0.3-1.8,0.5-2.5c0.1-0.6,0.3-1.2,0.5-1.7c0.2-0.4,0.4-0.7,0.7-1c0.3-0.2,0.6-0.3,1-0.3
	c0.3,0,0.6,0.1,0.9,0.3c0.2,0.3,0.4,0.6,0.4,1C78.1,17.2,78.1,17.8,78.1,18.3L78.1,18.3z"/>
<path class="st1" d="M95.3,25.2l2.3-14c0-0.1,0-0.1,0.1-0.2c0-0.1,0.1-0.1,0.1-0.2c0.1,0,0.1-0.1,0.2-0.1c0.1,0,0.1,0,0.2,0h4
	c0.3,0,0.5,0.2,0.4,0.5l-3.3,20.3c0,0.1,0,0.1-0.1,0.2c0,0.1-0.1,0.1-0.1,0.2C99.1,32,99,32,99,32.1c-0.1,0-0.1,0-0.2,0h-5.5
	c-0.3,0-0.7,0-1-0.2c-0.1-0.1-0.2-0.2-0.2-0.3c-0.1-0.1-0.1-0.2-0.1-0.4l-0.5-13.8l-2.3,14c0,0.1,0,0.1-0.1,0.2
	c0,0.1-0.1,0.1-0.1,0.2c-0.1,0-0.1,0.1-0.2,0.1c-0.1,0-0.1,0-0.2,0h-4c-0.3,0-0.5-0.2-0.4-0.5l3.3-20.3c0-0.1,0-0.1,0.1-0.2
	c0-0.1,0.1-0.1,0.1-0.2c0.1,0,0.1-0.1,0.2-0.1c0.1,0,0.1,0,0.2,0h5.5c0.3,0,0.7,0,1,0.2c0.1,0.1,0.2,0.2,0.2,0.3
	c0.1,0.1,0.1,0.2,0.1,0.4L95.3,25.2z"/>
<path class="st1" d="M113.1,15.8l-2.6,15.7c0,0.1,0,0.2-0.1,0.3c0,0.1-0.1,0.2-0.2,0.2c-0.1,0.1-0.1,0.1-0.2,0.1c-0.1,0-0.2,0-0.3,0
	h-4.7c-0.4,0-0.6-0.2-0.5-0.6l2.6-15.7H104c-0.4,0-0.6-0.2-0.5-0.6l0.6-3.8c0-0.1,0-0.2,0.1-0.3c0-0.1,0.1-0.1,0.2-0.2
	c0.1-0.1,0.1-0.1,0.2-0.1s0.2,0,0.3,0h12.4c0.4,0,0.6,0.2,0.5,0.6l-0.6,3.8c0,0.1,0,0.2-0.1,0.3c0,0.1-0.1,0.1-0.2,0.2
	c-0.1,0.1-0.1,0.1-0.2,0.1c-0.1,0-0.2,0-0.3,0L113.1,15.8z"/>
<path class="st1" d="M122.1,12.6c-0.1-0.1-0.1-0.1-0.2-0.2c0-0.1,0-0.2,0-0.3l0.6-3.8c0-0.1,0-0.2,0.1-0.3c0-0.1,0.1-0.1,0.2-0.2
	c0.1-0.1,0.1-0.1,0.2-0.1c0.1,0,0.2,0,0.3,0h7.7c0.4,0,0.6,0.2,0.5,0.6l-0.6,3.8c0,0.1,0,0.2-0.1,0.3c-0.1,0.1-0.1,0.2-0.2,0.2
	H122.1z"/>
<path class="st1" d="M128.8,13.1h-7.3c-0.1-0.1-0.1-0.1-0.2-0.2c0-0.1,0-0.2,0-0.3l0.3-1.9c-0.2,0-0.4,0-0.5,0.1
	c-0.1,0.1-0.3,0.3-0.3,0.4l-7.1,20.1c-0.2,0.5-0.1,0.7,0.4,0.7h4c0.2,0,0.3,0,0.5-0.1c0.1-0.1,0.2-0.2,0.3-0.4l1-3.2h4.1v3.2
	c0,0.1,0,0.1,0,0.2s0.1,0.1,0.1,0.2c0.1,0.1,0.3,0.1,0.4,0.1h4c0.4,0,0.6-0.2,0.6-0.7L128.8,13.1z M124.1,24h-2.7l2.8-8.9L124.1,24z
	"/>
<path class="st1" d="M147,12.9c-0.9-1.7-2.7-2.6-5.5-2.6c-2.7,0-4.8,0.9-6.3,2.6c-1.5,1.7-2.5,4.3-3.1,7.8l-0.2,1.4
	c-0.6,3.4-0.4,6,0.5,7.8c0.9,1.7,2.7,2.6,5.5,2.6c2.7,0,4.8-0.9,6.3-2.6c1.5-1.7,2.5-4.3,3.1-7.8l0.2-1.4
	C148.1,17.3,147.9,14.7,147,12.9z M142,18.3c-0.1,0.7-0.2,1.5-0.3,2.5l-0.2,1.1c-0.2,1-0.3,1.8-0.5,2.5c-0.1,0.6-0.3,1.2-0.6,1.7
	c-0.2,0.4-0.4,0.7-0.7,1c-0.3,0.2-0.6,0.3-1,0.3c-0.3,0-0.6-0.1-0.9-0.3c-0.2-0.3-0.4-0.6-0.4-1c-0.1-0.6,0-1.1,0-1.7
	c0.1-0.7,0.2-1.5,0.4-2.5l0.2-1.1c0.2-1,0.3-1.8,0.5-2.5c0.1-0.6,0.3-1.2,0.5-1.7c0.2-0.4,0.4-0.7,0.7-1c0.3-0.2,0.6-0.3,1-0.3
	c0.3,0,0.6,0.1,0.9,0.3c0.2,0.3,0.4,0.6,0.4,1C142.1,17.2,142.1,17.8,142,18.3L142,18.3z"/>
<path class="st2" d="M29.5,41.5c-0.2,0-0.4-0.1-0.4-0.3L29,38.4l-0.9,4.7c0,0.1,0,0.1-0.1,0.1c0,0-0.1,0.1-0.1,0h-1.6
	c-0.1,0-0.2-0.1-0.2-0.2l1.4-7.3c0-0.1,0-0.1,0.1-0.1c0,0,0.1-0.1,0.2,0h1.8c0.1,0,0.2,0,0.3,0.1c0,0,0.1,0.1,0.1,0.1
	c0,0,0,0.1,0,0.1l0.1,3.9l1.6-3.9c0-0.1,0.1-0.2,0.2-0.2c0.1,0,0.2-0.1,0.4-0.1h1.8c0.1,0,0.2,0.1,0.1,0.2l-1.4,7.3
	c0,0.1,0,0.1-0.1,0.1s-0.1,0.1-0.1,0h-1.6c-0.1,0-0.2-0.1-0.2-0.2l0.9-4.7l-1.2,2.8c0,0.1-0.1,0.2-0.2,0.2c-0.1,0.1-0.2,0.1-0.3,0.1
	H29.5z"/>
<path class="st2" d="M38.7,38.2c-0.2-0.2-0.4-0.4-0.7-0.5s-0.5-0.2-0.8-0.1c-0.4,0-0.8,0.1-1.2,0.2c-0.3,0.1-0.6,0.3-0.9,0.6
	c-0.2,0.2-0.4,0.5-0.6,0.9c-0.2,0.3-0.3,0.7-0.3,1.1l-0.1,0.4c-0.1,0.4-0.1,0.7-0.1,1.1c0,0.3,0.1,0.6,0.3,0.9
	c0.2,0.2,0.4,0.4,0.7,0.6c0.4,0.1,0.8,0.2,1.1,0.2c0.6,0,1.1-0.1,1.7-0.3c0.1,0,0.1-0.1,0.2-0.1c0-0.1,0.1-0.1,0.1-0.2l0.2-0.9
	c0-0.1,0-0.2-0.2-0.2c-0.2,0-0.4,0.1-0.6,0.1c-0.2,0-0.4,0-0.6,0c-0.2,0-0.5,0-0.6-0.2c-0.1-0.1-0.1-0.2-0.2-0.3
	c0-0.1-0.1-0.2,0-0.3h1.4c0.4,0,0.7-0.1,1-0.3c0.3-0.2,0.5-0.5,0.5-0.9C39.1,39.4,39,38.7,38.7,38.2L38.7,38.2z M37.1,39.7
	c0,0.2-0.1,0.3-0.2,0.3h-0.7c0-0.2,0.1-0.5,0.3-0.7c0-0.1,0.1-0.1,0.1-0.2s0.1-0.1,0.2-0.1c0.1,0,0.1,0,0.2,0c0,0,0.1,0.1,0.1,0.1
	C37.2,39.4,37.2,39.5,37.1,39.7z"/>
<path class="st2" d="M43.6,43.1c0,0.1,0,0.1-0.1,0.2c-0.1,0-0.1,0.1-0.2,0.1h-1.5c-0.2,0-0.2-0.1-0.2-0.2l0.6-3.1c0-0.2,0-0.4,0-0.5
	c0,0,0-0.1,0-0.1c0,0,0,0-0.1-0.1c0,0-0.1,0-0.1,0c0,0-0.1,0-0.1,0c-0.1,0-0.1,0-0.2,0l-0.1,0L41,43.1c0,0.1,0,0.1-0.1,0.2
	c-0.1,0-0.1,0.1-0.2,0.1h-1.5c-0.2,0-0.2-0.1-0.2-0.2l0.9-4.8c0-0.1,0.1-0.2,0.1-0.4c0.1-0.1,0.2-0.1,0.3-0.2c0.2,0,0.3-0.1,0.5-0.1
	c0.2,0,0.4-0.1,0.5-0.1c0.2,0,0.4,0,0.5-0.1c0.2,0,0.3,0,0.5,0c0.4,0,0.7,0,1,0.1c0.3,0.1,0.5,0.2,0.6,0.4c0.2,0.2,0.2,0.5,0.3,0.8
	c0,0.4,0,0.8-0.1,1.2L43.6,43.1z"/>
<path class="st2" d="M49.4,38.2c-0.3-0.5-0.9-0.7-1.6-0.7c-0.7,0-1.4,0.2-1.9,0.7c-0.5,0.6-0.9,1.3-1,2l-0.1,0.4
	c-0.2,0.9-0.1,1.6,0.2,2c0.3,0.5,0.9,0.7,1.6,0.7c0.7,0,1.4-0.2,1.9-0.7c0.5-0.6,0.9-1.3,1-2l0.1-0.4C49.8,39.3,49.7,38.7,49.4,38.2
	z M47.6,40.3l-0.1,0.4c0,0.3-0.1,0.6-0.2,0.8c0,0.1-0.1,0.1-0.1,0.2c-0.1,0-0.1,0.1-0.2,0.1c0,0-0.1,0-0.1,0c0,0-0.1,0-0.1,0
	c0,0,0,0-0.1-0.1c0,0,0-0.1,0-0.1c0-0.3,0-0.5,0.1-0.8l0.1-0.4c0-0.3,0.1-0.6,0.2-0.8c0-0.1,0.1-0.1,0.1-0.2c0.1,0,0.1-0.1,0.2-0.1
	c0,0,0.1,0,0.1,0c0,0,0.1,0,0.1,0c0,0,0,0,0.1,0.1c0,0,0,0.1,0,0.1C47.7,39.7,47.7,40,47.6,40.3L47.6,40.3z"/>
<path class="st2" d="M53.9,39.2c0,0.1,0,0.1-0.1,0.2c0,0-0.1,0-0.1,0c0,0-0.1,0-0.1,0c-0.1,0-0.3-0.1-0.4-0.1c-0.3,0-0.5,0-0.8,0
	l-0.7,3.8c0,0.1,0,0.1-0.1,0.2c-0.1,0-0.1,0.1-0.2,0.1h-1.5c-0.2,0-0.2-0.1-0.2-0.2l0.9-4.8c0-0.1,0.1-0.2,0.1-0.4
	c0.1-0.1,0.2-0.1,0.3-0.2c0.1,0,0.3-0.1,0.4-0.1c0.2,0,0.3-0.1,0.5-0.1c0.2,0,0.3,0,0.5-0.1c0.2,0,0.3,0,0.4,0c0.1,0,0.4,0,0.6,0
	c0.2,0,0.3,0,0.5,0.1c0.1,0,0.1,0,0.2,0.1c0,0.1,0,0.1,0,0.2L53.9,39.2z"/>
<path class="st2" d="M61.3,38.3c-0.3-0.5-0.9-0.8-1.8-0.8c-0.3,0-0.7,0-1,0.1c-0.3,0-0.6,0.1-0.9,0.2c-0.1,0-0.2,0.1-0.3,0.2
	c-0.1,0.1-0.1,0.2-0.1,0.4l-1.3,6.9c0,0.1,0,0.2,0.2,0.2h1.6c0,0,0.1,0,0.1,0c0,0,0,0,0.1,0c0,0,0,0,0-0.1c0,0,0-0.1,0-0.1l0.4-2
	c0.1,0.1,0.2,0.1,0.3,0.1c0.1,0,0.3,0,0.4,0c0.3,0,0.6-0.1,0.9-0.2c0.3-0.1,0.5-0.3,0.7-0.5c0.2-0.2,0.4-0.5,0.5-0.8
	c0.2-0.3,0.3-0.7,0.3-1.1l0.1-0.4c0.1-0.3,0.1-0.7,0.1-1.1C61.6,39,61.5,38.6,61.3,38.3z M59.5,40.5l0,0.2c0,0.3-0.1,0.6-0.3,0.8
	c-0.1,0.1-0.1,0.1-0.2,0.2c-0.1,0-0.2,0.1-0.3,0.1c-0.1,0-0.1,0-0.2,0l0.5-2.4c0.1,0,0.2,0,0.3,0c0.2,0,0.3,0.1,0.3,0.3
	C59.6,39.9,59.6,40.2,59.5,40.5L59.5,40.5z"/>
<path class="st2" d="M65.9,39.2c0,0.1,0,0.1-0.1,0.2c0,0-0.1,0-0.1,0c0,0-0.1,0-0.1,0c-0.1,0-0.3-0.1-0.4-0.1c-0.1,0-0.3,0-0.4,0
	c-0.1,0-0.3,0-0.4,0l-0.7,3.8c0,0.1,0,0.1-0.1,0.2c-0.1,0-0.1,0.1-0.2,0.1h-1.5c-0.2,0-0.2-0.1-0.2-0.2l0.9-4.8
	c0-0.1,0.1-0.2,0.1-0.4c0.1-0.1,0.2-0.1,0.3-0.2c0.1,0,0.3-0.1,0.4-0.1c0.2,0,0.3-0.1,0.5-0.1c0.2,0,0.3,0,0.5-0.1
	c0.2,0,0.3,0,0.4,0c0.1,0,0.4,0,0.6,0c0.2,0,0.3,0,0.5,0.1c0,0,0.1,0,0.1,0c0,0,0.1,0,0.1,0.1c0,0.1,0,0.1,0,0.2L65.9,39.2z"/>
<path class="st2" d="M70.5,38.2c-0.2-0.2-0.4-0.4-0.7-0.5c-0.3-0.1-0.5-0.2-0.8-0.1c-0.4,0-0.8,0.1-1.2,0.2
	c-0.3,0.1-0.6,0.3-0.9,0.6c-0.2,0.2-0.4,0.5-0.6,0.9c-0.2,0.3-0.3,0.7-0.3,1.1l-0.1,0.4c-0.1,0.4-0.1,0.7-0.1,1.1
	c0,0.3,0.1,0.6,0.3,0.9c0.2,0.2,0.4,0.4,0.7,0.6c0.4,0.1,0.8,0.2,1.1,0.2c0.6,0,1.1-0.1,1.7-0.3c0.1,0,0.1-0.1,0.2-0.1
	c0-0.1,0.1-0.1,0.1-0.2L70,42c0-0.1,0-0.2-0.2-0.2s-0.4,0.1-0.6,0.1c-0.2,0-0.4,0-0.6,0c-0.2,0-0.5,0-0.6-0.2
	c-0.1-0.1-0.1-0.2-0.2-0.3c0-0.1,0-0.2,0-0.3h1.4c0.4,0,0.7-0.1,1-0.3c0.3-0.2,0.5-0.5,0.5-0.9C70.8,39.4,70.8,38.7,70.5,38.2
	L70.5,38.2z M68.9,39.7c0,0.2-0.1,0.3-0.2,0.3H68c0-0.2,0.1-0.5,0.3-0.7c0-0.1,0.1-0.1,0.1-0.2c0.1,0,0.1-0.1,0.2-0.1
	c0.1,0,0.1,0,0.2,0c0,0,0.1,0.1,0.1,0.1C68.9,39.4,68.9,39.5,68.9,39.7L68.9,39.7z"/>
<path class="st2" d="M73.7,41.7c0.2,0,0.4,0,0.6,0c0.2,0,0.4,0,0.6-0.1c0.1,0,0.2,0,0.2,0.2l-0.2,1.1c0,0.1,0,0.1-0.1,0.1
	c-0.1,0-0.1,0.1-0.2,0.1c-0.1,0.1-0.3,0.1-0.4,0.2c-0.2,0-0.3,0.1-0.5,0.1l-0.3,0.5c0.2,0.1,0.4,0.2,0.5,0.4
	c0.1,0.1,0.1,0.2,0.1,0.3c0,0.1,0,0.2,0,0.3c0,0.2-0.1,0.3-0.2,0.5c-0.1,0.2-0.2,0.3-0.4,0.4c-0.3,0.2-0.6,0.3-1,0.3
	c-0.1,0-0.3,0-0.4,0c-0.1,0-0.2-0.1-0.3-0.1c-0.1-0.1-0.2-0.2-0.2-0.3l0.1-0.4c0,0,0-0.1,0.1-0.1c0,0,0,0,0.1,0c0,0,0,0,0.1,0
	c0.1,0,0.1,0.1,0.2,0.1c0.1,0,0.1,0,0.2,0c0.1,0,0.2-0.1,0.3-0.3c0-0.1,0-0.1,0-0.2c0-0.1,0-0.1-0.1-0.2c-0.1-0.1-0.2-0.1-0.3-0.1
	c0,0-0.1,0-0.1,0c0,0-0.1,0-0.1-0.1c0,0,0-0.1,0-0.1c0,0,0-0.1,0-0.1l0.6-0.8c-0.3,0-0.5-0.1-0.8-0.2c-0.2-0.1-0.4-0.3-0.6-0.6
	c-0.2-0.6-0.3-1.2-0.1-1.8l0.1-0.5c0.1-0.4,0.2-0.8,0.4-1.1c0.1-0.3,0.3-0.6,0.6-0.8c0.3-0.2,0.6-0.4,0.9-0.5
	c0.4-0.1,0.8-0.2,1.2-0.2c0.2,0,0.5,0,0.7,0.1c0.2,0,0.4,0.1,0.6,0.2c0.1,0,0.1,0.1,0.1,0.1c0,0,0,0,0,0.1c0,0,0,0.1,0,0.1l-0.2,1.1
	c0,0.1-0.1,0.2-0.2,0.2c-0.3-0.1-0.7-0.1-1-0.1c-0.1,0-0.3,0-0.4,0.1c-0.1,0-0.2,0.1-0.3,0.2c-0.2,0.2-0.3,0.5-0.3,0.8l0,0.2
	c-0.1,0.3-0.1,0.6,0,0.8C73.2,41.6,73.4,41.7,73.7,41.7z"/>
<path class="st2" d="M80.3,38.2c-0.3-0.5-0.9-0.7-1.6-0.7c-0.7,0-1.4,0.2-1.9,0.7c-0.5,0.6-0.9,1.3-1,2l-0.1,0.4
	c-0.2,0.9-0.1,1.6,0.2,2c0.3,0.4,0.9,0.7,1.6,0.7c0.7,0,1.4-0.2,1.9-0.7c0.5-0.6,0.9-1.3,1-2l0.1-0.4C80.7,39.3,80.7,38.7,80.3,38.2
	z M78.6,40.3l-0.1,0.4c0,0.3-0.1,0.6-0.2,0.8c0,0.1-0.1,0.1-0.1,0.2c-0.1,0-0.1,0.1-0.2,0.1c0,0-0.1,0-0.1,0c0,0-0.1,0-0.1,0
	c0,0,0,0-0.1-0.1c0,0,0-0.1,0-0.1c0-0.3,0-0.5,0.1-0.8l0.1-0.4c0-0.3,0.1-0.6,0.2-0.8c0-0.1,0.1-0.1,0.1-0.2c0.1,0,0.1-0.1,0.2-0.1
	c0,0,0.1,0,0.1,0c0,0,0.1,0,0.1,0c0,0,0,0,0.1,0.1c0,0,0,0.1,0,0.1C78.6,39.7,78.6,40,78.6,40.3L78.6,40.3z"/>
<path class="st2" d="M88.8,38c0,0-0.1-0.1-0.1-0.1c0,0-0.1-0.1-0.1-0.1c-0.3-0.1-0.6-0.1-0.9-0.2c-0.3,0-0.6-0.1-0.9-0.1
	c-0.8,0-1.5,0.2-2.1,0.7c-0.6,0.5-0.9,1.3-1,2l-0.1,0.3c-0.1,0.4-0.1,0.7-0.1,1.1c0,0.3,0.1,0.6,0.2,0.8c0.1,0.2,0.3,0.4,0.5,0.5
	c0.3,0.1,0.5,0.2,0.8,0.2c0.1,0,0.3,0,0.4,0c0.1,0,0.3-0.1,0.4-0.1l0,0.1c0,0.1,0,0.2-0.1,0.3c0,0.1-0.1,0.2-0.2,0.2
	c-0.2,0.1-0.4,0.2-0.7,0.1c-0.2,0-0.4,0-0.6,0c-0.2,0-0.4,0-0.6-0.1c0,0-0.1,0-0.1,0c0,0,0,0-0.1,0c0,0,0,0-0.1,0.1c0,0,0,0,0,0.1
	L83.3,45c0,0,0,0.1,0,0.1c0,0,0,0.1,0,0.1c0,0,0.1,0.1,0.1,0.1c0.2,0.1,0.4,0.2,0.7,0.2c0.3,0.1,0.5,0.1,0.8,0.1
	c0.4,0,0.8,0,1.2-0.2c0.3-0.1,0.6-0.2,0.8-0.4c0.2-0.2,0.4-0.4,0.6-0.7c0.1-0.3,0.2-0.6,0.3-0.9l1-5C88.8,38.2,88.8,38.1,88.8,38z
	 M86.2,41.5c-0.1,0-0.1,0-0.2,0c-0.4,0-0.5-0.3-0.4-1l0-0.2c0-0.1,0.1-0.3,0.1-0.4c0-0.1,0.1-0.3,0.2-0.4c0-0.1,0.1-0.2,0.2-0.3
	c0.1-0.1,0.2-0.1,0.3-0.1c0.1,0,0.2,0,0.2,0L86.2,41.5z"/>
<path class="st2" d="M94,38c0,0-0.1-0.1-0.1-0.1c0,0-0.1-0.1-0.1-0.1c-0.3-0.1-0.6-0.2-0.8-0.2c-0.3,0-0.6-0.1-1-0.1
	c-0.4,0-0.8,0.1-1.1,0.2c-0.3,0.1-0.6,0.3-0.9,0.6c-0.3,0.3-0.5,0.6-0.7,0.9c-0.2,0.4-0.3,0.8-0.4,1.2l-0.1,0.4
	c-0.1,0.4-0.1,0.7-0.1,1.1c0,0.3,0.1,0.6,0.2,0.8c0.1,0.2,0.3,0.4,0.5,0.5c0.2,0.1,0.5,0.2,0.8,0.2c0.2,0,0.3,0,0.5-0.1
	c0.2-0.1,0.3-0.2,0.4-0.4l0,0.2c0,0.1,0,0.2,0.2,0.2h1.6c0,0,0.1,0,0.1,0c0,0,0,0,0.1,0c0,0,0,0,0-0.1c0,0,0,0,0-0.1l0.9-4.8
	C94.1,38.2,94.1,38.1,94,38L94,38z M91.5,41.5c-0.1,0.2-0.2,0.2-0.3,0.2c-0.1,0-0.1,0-0.2-0.1c-0.1,0-0.1-0.1-0.1-0.2
	c0-0.3,0-0.5,0-0.8l0-0.2c0-0.3,0.1-0.6,0.3-0.9c0-0.1,0.1-0.2,0.2-0.2c0.1-0.1,0.2-0.1,0.3-0.1c0.1,0,0.2,0,0.2,0L91.5,41.5z"/>
<path class="st2" d="M98.2,39.2c0,0.1,0,0.1-0.1,0.2c0,0-0.1,0-0.1,0c0,0-0.1,0-0.1,0c-0.1,0-0.3-0.1-0.4-0.1c-0.1,0-0.3,0-0.4,0
	c-0.1,0-0.3,0-0.4,0l-0.7,3.8c0,0.1,0,0.1-0.1,0.2c-0.1,0-0.1,0.1-0.2,0.1h-1.5c-0.2,0-0.2-0.1-0.2-0.2l0.9-4.8
	c0-0.1,0.1-0.2,0.1-0.4c0.1-0.1,0.2-0.1,0.3-0.2c0.1,0,0.3-0.1,0.4-0.1c0.2,0,0.3-0.1,0.5-0.1c0.2,0,0.3,0,0.5-0.1
	c0.2,0,0.3,0,0.4,0s0.4,0,0.6,0c0.2,0,0.3,0,0.5,0.1c0,0,0.1,0,0.1,0c0,0,0.1,0,0.1,0.1c0,0.1,0,0.1,0,0.2L98.2,39.2z"/>
<path class="st2" d="M103.3,38c0,0-0.1-0.1-0.1-0.1c0,0-0.1-0.1-0.1-0.1c-0.3-0.1-0.6-0.2-0.8-0.2c-0.3,0-0.6-0.1-1-0.1
	c-0.4,0-0.8,0.1-1.1,0.2c-0.3,0.1-0.6,0.3-0.9,0.6c-0.3,0.3-0.5,0.6-0.7,0.9c-0.2,0.4-0.3,0.8-0.4,1.2l-0.1,0.4
	C98,41.2,98,41.5,98,41.9c0,0.3,0.1,0.6,0.2,0.8c0.1,0.2,0.3,0.4,0.5,0.5c0.2,0.1,0.5,0.2,0.8,0.2c0.2,0,0.3,0,0.5-0.1
	c0.2-0.1,0.3-0.2,0.4-0.4l0,0.2c0,0.1,0,0.2,0.2,0.2h1.6c0,0,0.1,0,0.1,0c0,0,0,0,0.1,0c0,0,0,0,0.1-0.1s0,0,0-0.1l0.9-4.8
	C103.4,38.2,103.4,38.1,103.3,38L103.3,38z M100.7,41.5c0,0.1-0.1,0.1-0.1,0.2c-0.1,0-0.1,0.1-0.2,0.1c-0.1,0-0.1,0-0.2-0.1
	c-0.1,0-0.1-0.1-0.1-0.2c0-0.3,0-0.5,0-0.8l0-0.2c0-0.3,0.1-0.6,0.3-0.9c0-0.1,0.1-0.2,0.2-0.2c0.1-0.1,0.2-0.1,0.3-0.1
	c0.1,0,0.2,0,0.2,0L100.7,41.5z"/>
<path class="st2" d="M108,43.1c0,0.1,0,0.1-0.1,0.2c-0.1,0-0.1,0.1-0.2,0.1h-1.5c-0.2,0-0.2-0.1-0.2-0.2l0.6-3.1c0-0.2,0-0.4,0-0.5
	c0,0,0-0.1,0-0.1c0,0,0,0-0.1-0.1c0,0-0.1,0-0.1,0c0,0-0.1,0-0.1,0c-0.1,0-0.1,0-0.2,0l-0.1,0l-0.7,3.8c0,0.1,0,0.1-0.1,0.2
	c-0.1,0-0.1,0.1-0.2,0.1h-1.6c-0.2,0-0.2-0.1-0.2-0.2l0.9-4.8c0-0.1,0.1-0.2,0.1-0.4c0.1-0.1,0.2-0.1,0.3-0.2c0.2,0,0.3-0.1,0.5-0.1
	c0.2,0,0.4-0.1,0.5-0.1c0.2,0,0.4,0,0.5-0.1c0.2,0,0.3,0,0.5,0c0.4,0,0.7,0,1,0.1c0.3,0.1,0.5,0.2,0.6,0.4c0.2,0.2,0.2,0.5,0.3,0.8
	c0,0.4,0,0.8-0.1,1.2L108,43.1z"/>
<path class="st2" d="M109.5,39.3c-0.1,0-0.2-0.1-0.2-0.2l0.2-1.2c0-0.1,0-0.1,0.1-0.2c0.1,0,0.1-0.1,0.2-0.1h0.6l0.2-1.3
	c0,0,0-0.1,0-0.1c0,0,0-0.1,0.1-0.1c0,0,0.1,0,0.1,0c0,0,0.1,0,0.1,0h1.5c0.1,0,0.2,0.1,0.2,0.2l-0.3,1.3h1c0.2,0,0.2,0.1,0.2,0.2
	l-0.2,1.2c0,0.1,0,0.1-0.1,0.2c-0.1,0-0.1,0.1-0.2,0.1h-1l-0.3,1.6c0,0.2,0,0.4,0,0.6c0,0.1,0.2,0.2,0.4,0.2c0.2,0,0.4,0,0.6-0.1
	c0.1,0,0.2,0,0.2,0.2l-0.2,1.1c0,0.1,0,0.1-0.1,0.1c-0.1,0-0.1,0.1-0.2,0.1c-0.2,0.1-0.3,0.1-0.5,0.2c-0.2,0-0.4,0.1-0.5,0.1
	c-0.3,0-0.6,0-1-0.2c-0.2-0.1-0.4-0.2-0.5-0.4c-0.1-0.2-0.2-0.4-0.2-0.7c0-0.3,0-0.6,0.1-0.9l0.4-1.9L109.5,39.3z"/>
<path class="st2" d="M114.6,37.1c-0.2,0-0.2-0.1-0.2-0.2l0.2-1.2c0-0.1,0-0.1,0.1-0.2c0,0,0.1-0.1,0.2-0.1h1.6
	c0.1,0,0.2,0.1,0.2,0.2l0,0.2c0,0.1-0.1,0.3-0.1,0.4c-0.1,0.2-0.2,0.4-0.3,0.6c0,0.1-0.1,0.1-0.2,0.2c-0.1,0-0.1,0.1-0.2,0.1
	L114.6,37.1z"/>
<path class="st2" d="M114.3,37.9C114.3,37.8,114.3,37.8,114.3,37.9c0-0.1,0.1-0.1,0.1-0.2c0,0,0.1,0,0.1,0c0,0,0.1,0,0.1,0h1.6
	c0.1,0,0.2,0.1,0.2,0.2l-1,5.2c0,0.1,0,0.1-0.1,0.2c-0.1,0-0.1,0.1-0.2,0.1h-1.6c-0.2,0-0.2-0.1-0.2-0.2L114.3,37.9z"/>
<path class="st2" d="M122.1,35.3h-1.6c-0.1,0-0.1,0-0.1,0c0,0-0.1,0.1-0.1,0.1l-0.4,2.2c-0.2-0.1-0.5-0.2-0.7-0.2
	c-0.3,0-0.6,0.1-0.9,0.2c-0.3,0.1-0.5,0.3-0.7,0.5c-0.2,0.2-0.4,0.5-0.5,0.8c-0.2,0.3-0.3,0.7-0.3,1.1l-0.1,0.4
	c-0.2,0.7-0.1,1.4,0.3,2.1c0.3,0.5,0.9,0.8,1.8,0.8c0.3,0,0.6,0,1-0.1c0.3,0,0.6-0.1,0.9-0.2c0.1,0,0.2-0.1,0.3-0.2
	c0.1-0.1,0.1-0.2,0.2-0.4l1.4-7.1C122.3,35.4,122.2,35.3,122.1,35.3z M119.1,41.7c-0.1,0-0.2,0-0.2,0c0,0-0.1,0-0.1,0
	c0,0-0.1,0-0.1-0.1c-0.1-0.1-0.1-0.2-0.1-0.3c0-0.1,0-0.3,0-0.4c0-0.2,0-0.3,0.1-0.5l0-0.2c0-0.3,0.1-0.6,0.3-0.8
	c0.1-0.1,0.1-0.1,0.2-0.2c0.1,0,0.2-0.1,0.2-0.1c0.1,0,0.1,0,0.2,0L119.1,41.7z"/>
<path class="st2" d="M126.6,38.2c-0.3-0.5-0.9-0.7-1.6-0.7c-0.7,0-1.4,0.2-1.9,0.7c-0.5,0.6-0.9,1.3-1,2l-0.1,0.4
	c-0.2,0.9-0.1,1.6,0.2,2c0.3,0.5,0.9,0.7,1.6,0.7c0.7,0,1.4-0.2,1.9-0.7c0.5-0.6,0.9-1.3,1-2l0.1-0.4
	C126.9,39.3,126.9,38.7,126.6,38.2z M124.8,40.3l-0.1,0.4c0,0.3-0.1,0.6-0.2,0.8c0,0.1-0.1,0.1-0.1,0.2c-0.1,0-0.1,0.1-0.2,0.1
	c0,0-0.1,0-0.1,0c0,0-0.1,0-0.1,0c0,0,0,0-0.1-0.1c0,0,0-0.1,0-0.1c0-0.3,0-0.5,0.1-0.8l0.1-0.4c0-0.3,0.1-0.6,0.2-0.8
	c0-0.1,0.1-0.1,0.1-0.2c0.1,0,0.1-0.1,0.2-0.1c0,0,0.1,0,0.1,0c0,0,0.1,0,0.1,0c0,0,0,0,0.1,0.1c0,0,0,0.1,0,0.1
	C124.8,39.7,124.8,40,124.8,40.3L124.8,40.3z"/>
<path class="st2" d="M129.9,35.6c0.1,0,0.1,0,0.1,0.1c0,0.1,0,0.1,0,0.2l-0.3,1.7l-0.8,3.3c0,0.1,0,0.1-0.1,0.2
	c-0.1,0-0.1,0.1-0.2,0.1h-1.2c-0.1,0-0.1,0-0.2-0.1c0-0.1,0-0.1,0-0.2l0.5-3.3l0.3-1.7c0-0.1,0-0.1,0.1-0.2c0.1,0,0.1-0.1,0.2-0.1
	H129.9z"/>
<path class="st2" d="M127.2,43.3c-0.2,0-0.3-0.1-0.3-0.2c0-0.1,0-0.2,0-0.3c0-0.1,0-0.2,0-0.3c0-0.1,0-0.2,0-0.3s0-0.2,0-0.2v-0.1
	c0,0,0-0.1,0-0.1c0,0,0-0.1,0.1-0.1c0,0,0.1,0,0.1,0c0,0,0.1,0,0.1,0h1.5c0.1,0,0.2,0.1,0.2,0.2l-0.2,1.2c0,0.1,0,0.1-0.1,0.2
	c-0.1,0-0.1,0.1-0.2,0.1H127.2z"/>
</svg>
